<?xml version="1.0" standalone="no"?>
<!DOCTYPE svg PUBLIC "-//W3C//DTD SVG 20010904//EN"
 "http://www.w3.org/TR/2001/REC-SVG-20010904/DTD/svg10.dtd">
<svg version="1.0" xmlns="http://www.w3.org/2000/svg"
 width="709.000000pt" height="709.000000pt" viewBox="0 0 709.000000 709.000000"
 preserveAspectRatio="xMidYMid meet">

<g transform="translate(0.000000,709.000000) scale(0.100000,-0.100000)"
fill="#000000" stroke="none">
<path d="M5194 5960 c-110 -28 -172 -54 -227 -94 -37 -27 -1033 -1106 -1066
-1154 -37 -55 -61 -127 -60 -180 l1 -47 9 55 c20 121 33 138 578 728 281 304
523 563 538 575 41 33 73 51 123 70 43 16 44 16 22 0 -40 -31 -1046 -1123
-1078 -1172 -105 -154 -96 -359 23 -513 15 -20 277 -267 582 -547 597 -549
612 -561 751 -592 l75 -16 -49 -8 c-67 -11 -182 -1 -236 21 -25 9 -66 31 -91
48 -45 30 -786 706 -998 911 -162 157 -223 245 -241 354 l-8 46 -1 -51 c-2
-76 49 -170 146 -273 43 -44 301 -286 573 -536 410 -377 507 -461 562 -490
123 -61 236 -69 383 -26 39 12 94 28 123 37 118 35 245 156 292 281 58 153 23
349 -82 469 -18 21 -199 190 -401 377 l-369 339 34 37 c219 231 610 663 634
700 196 289 -25 685 -379 680 -29 0 -102 -13 -163 -29z"/>
<path d="M1475 5791 c-135 -34 -165 -47 -234 -99 -70 -53 -135 -142 -163 -222
-29 -82 -31 -239 -4 -310 46 -122 -3 -74 2069 -1984 1227 -1129 2012 -1845
2049 -1868 77 -48 185 -73 277 -65 99 9 281 71 354 121 73 49 146 141 178 223
19 47 23 77 23 163 0 117 -18 179 -77 267 -48 72 -3996 3704 -4068 3742 -124
67 -231 75 -404 32z m-123 -80 c-58 -46 -123 -139 -149 -213 -13 -39 -18 -80
-17 -153 0 -112 19 -176 77 -262 20 -29 807 -761 2022 -1880 2180 -2009 2040
-1887 2200 -1916 70 -13 70 -13 30 -20 -103 -17 -199 -1 -295 49 -53 29 -424
365 -2059 1872 -1899 1749 -1997 1840 -2032 1905 -99 185 -70 395 77 543 45
44 158 114 186 114 6 0 -12 -18 -40 -39z"/>
<path d="M1615 4034 c-104 -28 -249 -79 -290 -103 -95 -55 -176 -154 -212
-262 -24 -71 -24 -213 -1 -290 37 -119 38 -120 1156 -1146 584 -537 1081 -989
1105 -1005 95 -63 239 -92 346 -69 92 20 254 84 316 126 71 48 144 140 176
222 19 47 23 77 23 163 0 115 -16 172 -73 262 -32 51 -2125 1981 -2201 2029
-74 48 -147 71 -240 75 -47 1 -94 1 -105 -2z m-243 -132 c-161 -161 -186 -400
-63 -594 32 -51 2125 -1981 2201 -2029 60 -39 137 -67 212 -77 l63 -8 -60 -13
c-109 -24 -236 -2 -333 59 -69 43 -2166 1974 -2201 2027 -123 185 -100 424 54
578 41 40 158 115 182 115 1 0 -23 -26 -55 -58z"/>
<path d="M1615 2211 c-16 -5 -66 -16 -109 -26 -109 -23 -161 -49 -227 -115
-195 -193 -116 -571 166 -797 165 -132 379 -192 530 -148 28 8 84 24 125 35
93 26 144 56 197 113 78 85 110 181 100 306 -21 263 -235 521 -507 611 -71 23
-225 35 -275 21z m-184 -96 c-89 -83 -128 -191 -118 -324 24 -304 301 -590
617 -637 50 -7 52 -8 25 -15 -95 -22 -236 1 -350 56 -316 152 -497 524 -375
772 37 75 111 144 183 172 72 28 72 27 18 -24z"/>
</g>
</svg>
