<?xml version="1.0" standalone="no"?>
<!DOCTYPE svg PUBLIC "-//W3C//DTD SVG 20010904//EN"
 "http://www.w3.org/TR/2001/REC-SVG-20010904/DTD/svg10.dtd">
<svg version="1.0" xmlns="http://www.w3.org/2000/svg"
 width="2000.0000 pt" height="2000.0000pt" viewBox="0 0 2000. 2000."
 preserveAspectRatio="xMidYMid meet">

<g transform="translate(0.000000,2000.000000) scale(0.100000,-0.100000)"
fill="#000000" stroke="none">
<path d="M15234 16666 c27 -29 93 -63 103 -53 7 8 -53 60 -84 73 -49 21 -54
17 -19 -20z"/>
<path d="M15330 16530 c-19 -11 -5 -26 33 -35 17 -5 27 -3 27 4 0 6 -7 8 -15
5 -9 -4 -18 2 -23 15 -5 15 -11 18 -22 11z"/>
<path d="M13414 16511 c-276 -94 -448 -432 -378 -744 33 -147 120 -263 241
-319 60 -29 77 -32 153 -31 147 1 214 9 249 27 21 11 44 16 62 12 24 -4 39 3
89 45 34 28 75 69 92 92 41 56 102 189 119 257 19 80 15 261 -8 335 l-19 60
-50 5 c-44 5 -51 9 -69 42 -11 20 -17 39 -14 43 3 3 25 -1 47 -9 23 -9 42 -11
42 -6 0 5 -24 33 -53 63 -42 42 -68 58 -127 79 -41 14 -100 35 -130 47 -69 25
-174 27 -246 2z"/>
<path d="M10113 13018 c-115 -10 -251 -52 -382 -118 -60 -29 -112 -45 -236
-70 -271 -54 -441 -117 -555 -205 -200 -156 -300 -356 -300 -602 0 -231 66
-396 227 -564 l44 -46 -53 -79 c-81 -119 -91 -149 -86 -242 7 -120 54 -226
139 -317 37 -39 87 -84 111 -102 l44 -32 0 222 c-1 183 2 233 17 287 32 117
56 132 171 103 122 -30 271 16 468 144 40 27 118 68 173 93 88 39 110 45 187
48 l86 4 59 -43 c32 -24 85 -71 118 -104 143 -144 277 -210 445 -219 75 -4
181 -27 204 -46 53 -42 53 -40 59 -196 3 -82 10 -161 16 -176 7 -19 7 -28 -2
-31 -7 -2 -202 -37 -434 -78 -280 -48 -423 -77 -423 -85 0 -10 -42 -24 -70
-24 -5 0 -14 16 -20 35 -6 19 -31 57 -56 84 -33 36 -41 52 -32 58 7 4 78 9
158 11 80 2 153 8 163 13 49 27 -17 108 -111 135 -46 14 -84 16 -195 11 -123
-5 -144 -8 -193 -32 -62 -30 -154 -115 -154 -142 0 -11 -20 -30 -51 -48 -93
-55 -155 -143 -166 -236 -4 -31 -10 -48 -17 -46 -21 8 -128 -12 -182 -33 l-54
-22 -44 48 c-25 27 -45 52 -46 57 0 4 9 16 21 28 18 18 28 20 76 14 42 -5 58
-3 64 7 36 56 -40 178 -112 178 -48 0 -134 -93 -148 -162 -7 -31 -10 -33 -43
-30 -92 8 -244 -45 -307 -109 -50 -50 -71 -102 -71 -183 0 -51 -4 -72 -16 -80
-13 -10 -14 -18 -4 -55 8 -31 16 -41 28 -39 12 2 28 -19 59 -82 66 -134 148
-207 245 -217 157 -16 296 103 329 282 6 33 17 67 25 76 30 33 11 181 -27 210
l-22 17 31 16 c41 21 138 46 179 46 30 0 33 -3 43 -42 6 -24 14 -52 17 -63 16
-58 118 -247 148 -274 42 -37 68 -42 180 -38 102 4 166 29 221 89 61 64 104
186 104 296 0 28 3 51 8 50 4 -1 20 6 36 17 37 25 150 59 281 85 220 44 637
120 656 120 27 0 111 -66 136 -105 15 -25 18 -51 18 -165 0 -117 -3 -140 -21
-175 -26 -50 -40 -54 -277 -89 -296 -44 -369 -81 -545 -280 -148 -168 -171
-185 -242 -186 -25 0 -77 9 -115 20 -76 22 -187 26 -232 9 -15 -5 -71 -34
-123 -64 -135 -76 -190 -90 -294 -75 -74 11 -85 11 -109 -5 -30 -19 -29 -21
-44 79 -5 27 -14 51 -20 53 -7 3 -22 -10 -33 -29 -20 -30 -21 -43 -16 -143 7
-147 33 -243 112 -405 148 -305 306 -475 460 -495 66 -9 285 36 544 112 30 9
66 17 80 19 59 7 309 77 362 101 59 26 81 44 84 70 4 24 -25 27 -107 8 -43
-10 -81 -16 -84 -14 -2 3 35 47 84 99 93 100 99 104 290 184 201 84 398 230
420 311 33 118 63 297 71 430 6 83 14 173 20 200 5 28 9 113 9 190 1 77 4 163
7 192 7 51 7 52 58 73 28 12 62 29 76 38 14 9 39 15 55 14 30 -2 30 -2 6 11
l-23 14 38 32 c48 39 76 47 113 31 35 -14 87 -64 106 -101 26 -49 55 -172 57
-242 2 -39 6 -60 10 -50 13 31 106 433 127 548 61 329 41 533 -70 718 -54 91
-91 131 -219 234 l-85 69 -1 65 c-3 225 -113 468 -256 567 -61 42 -161 81
-243 96 -67 12 -100 11 -255 -8 l-55 -7 -40 58 c-80 117 -181 219 -268 272
-150 90 -195 108 -335 135 -72 14 -138 25 -145 25 -6 -1 -58 -6 -114 -11z
m-226 -2427 c55 -27 113 -84 100 -97 -3 -3 -20 -13 -39 -22 -18 -10 -39 -28
-47 -43 -20 -35 -7 -111 25 -149 21 -25 33 -30 69 -30 51 0 60 -18 38 -71 -29
-70 -99 -117 -187 -126 -111 -11 -192 40 -251 160 -92 187 -34 325 163 387 31
10 60 19 63 19 3 1 33 -12 66 -28z m-835 -230 c10 -9 31 -161 24 -169 -5 -4
-366 -60 -398 -62 -5 0 -8 14 -8 30 0 99 101 186 245 209 50 8 124 4 137 -8z
m123 -124 c8 -28 15 -80 14 -116 l0 -66 -30 120 c-33 140 -34 141 -14 125 8
-7 22 -35 30 -63z m0 -193 c16 -24 16 -29 0 -69 -41 -109 -129 -175 -232 -175
-66 0 -116 24 -166 79 -31 34 -83 119 -75 122 8 3 416 67 434 68 13 1 29 -9
39 -25z m943 -619 c97 -29 120 -88 57 -144 -74 -65 -213 -119 -469 -185 -215
-56 -249 -49 -298 61 -42 95 -18 166 61 178 112 18 167 30 265 62 60 19 130
39 155 43 57 11 167 3 229 -15z"/>
<path d="M9896 9364 c-48 -7 -116 -22 -150 -33 -33 -11 -88 -28 -120 -37 -40
-12 -76 -32 -108 -61 -27 -24 -53 -43 -59 -43 -6 0 -7 -5 -3 -11 10 -18 138
-4 216 22 37 13 66 24 64 26 -2 2 -32 -3 -66 -12 -55 -14 -65 -15 -78 -2 -34
35 10 55 239 111 101 25 193 47 204 49 47 11 -57 4 -139 -9z"/>
<path d="M10081 9340 c-27 -23 -25 -24 18 -9 17 6 31 15 31 20 0 15 -24 10
-49 -11z"/>
<path d="M9925 9280 c-34 -10 -49 -18 -35 -18 14 0 48 8 75 18 65 24 38 24
-40 0z"/>
<path d="M9838 9253 c7 -3 16 -2 19 1 4 3 -2 6 -13 5 -11 0 -14 -3 -6 -6z"/>
<path d="M9798 9243 c7 -3 16 -2 19 1 4 3 -2 6 -13 5 -11 0 -14 -3 -6 -6z"/>
<path d="M11971 9926 c-49 -78 -151 -140 -250 -151 -79 -9 -101 -14 -101 -25
0 -6 23 -7 59 -4 53 6 58 5 63 -14 3 -12 -7 -63 -23 -114 -42 -132 -91 -328
-85 -342 2 -6 5 -2 5 9 1 13 21 36 52 60 97 74 197 219 237 345 27 83 72 263
68 268 -2 1 -13 -13 -25 -32z"/>
<path d="M9485 9688 l-30 -18 67 0 c40 0 70 5 74 12 5 8 -2 9 -24 5 -20 -4
-36 -2 -44 7 -11 10 -19 9 -43 -6z"/>
<path d="M11622 9235 c0 -16 2 -22 5 -12 2 9 2 23 0 30 -3 6 -5 -1 -5 -18z"/>
<path d="M11614 9090 c0 -52 1 -74 3 -47 2 26 2 68 0 95 -2 26 -3 4 -3 -48z"/>
<path d="M11623 8915 c0 -27 2 -38 4 -22 2 15 2 37 0 50 -2 12 -4 0 -4 -28z"/>
<path d="M11632 8835 c0 -16 2 -22 5 -12 2 9 2 23 0 30 -3 6 -5 -1 -5 -18z"/>
<path d="M11642 8760 c0 -14 2 -19 5 -12 2 6 2 18 0 25 -3 6 -5 1 -5 -13z"/>
<path d="M11652 8695 c0 -16 2 -22 5 -12 2 9 2 23 0 30 -3 6 -5 -1 -5 -18z"/>
<path d="M11662 8635 c0 -16 2 -22 5 -12 2 9 2 23 0 30 -3 6 -5 -1 -5 -18z"/>
<path d="M11672 8580 c0 -14 4 -36 8 -50 6 -20 8 -21 8 -5 0 11 -4 34 -8 50
-7 27 -8 27 -8 5z"/>
<path d="M11692 8480 c0 -14 2 -19 5 -12 2 6 2 18 0 25 -3 6 -5 1 -5 -13z"/>
<path d="M11706 8410 c4 -25 10 -54 15 -65 10 -24 0 48 -12 85 -6 16 -7 10 -3
-20z"/>
<path d="M11731 8312 c-1 -19 32 -148 36 -137 1 6 -6 42 -16 80 -11 39 -20 64
-20 57z"/>
<path d="M11771 8155 c-1 -6 3 -24 8 -41 l9 -31 -97 -6 c-53 -4 -114 -11 -136
-17 -74 -20 -125 -42 -125 -54 0 -6 -9 -20 -21 -29 -11 -10 -18 -25 -15 -33 3
-8 -1 -17 -9 -20 -30 -12 -5 -119 26 -111 10 3 30 -3 46 -13 16 -9 36 -16 46
-14 9 1 17 -1 17 -5 0 -4 12 -8 27 -9 30 -2 105 -73 85 -80 -7 -2 -12 -9 -12
-15 0 -7 -14 -20 -31 -30 -31 -17 -31 -18 -13 -32 18 -14 18 -16 2 -29 -10 -7
-18 -17 -18 -22 -1 -32 -355 -329 -428 -360 -74 -31 -148 -15 -256 56 -91 60
-156 93 -164 86 -3 -3 -1 -6 4 -6 5 0 20 -10 34 -21 21 -16 16 -16 -27 5 -66
33 -107 33 -136 3 -12 -13 -30 -26 -39 -30 -28 -10 -21 -25 19 -42 54 -23 79
-50 100 -108 20 -56 98 -147 126 -147 9 0 17 -3 17 -8 0 -4 27 -16 59 -26 47
-15 78 -18 148 -14 100 6 157 27 213 78 118 108 168 157 189 184 13 17 21 23
18 13 -6 -16 -4 -16 23 -2 17 9 30 19 30 24 0 5 11 12 25 15 15 4 23 11 19 17
-4 7 1 9 15 4 15 -4 21 -3 19 7 -2 7 3 12 10 11 6 -2 12 2 12 8 0 5 5 7 10 4
6 -3 10 1 10 10 0 8 6 18 14 21 8 3 17 13 20 21 5 13 4 14 -8 4 -11 -9 -15 -9
-18 1 -4 10 -8 10 -20 1 -12 -11 -14 -9 -14 10 1 13 -4 21 -11 19 -16 -3 -16
8 -3 44 19 49 83 100 171 134 66 26 196 38 236 21 15 -6 37 -13 48 -15 60 -12
370 -104 420 -125 92 -39 177 -87 213 -121 23 -23 42 -45 42 -49 0 -5 7 -12
16 -15 8 -3 12 -10 9 -16 -3 -5 -3 -16 1 -22 21 -33 6 -127 -17 -113 -5 4 -9
1 -9 -4 0 -6 5 -11 11 -11 6 0 9 -7 6 -15 -4 -8 -1 -17 5 -21 7 -5 8 -2 3 6
-5 8 -4 11 3 6 6 -4 9 -13 6 -20 -3 -8 3 -20 14 -27 10 -8 22 -24 26 -36 4
-13 11 -23 16 -23 5 0 7 -6 4 -13 -2 -7 5 -23 17 -36 11 -12 18 -25 15 -28 -3
-4 1 -17 9 -29 8 -13 10 -24 5 -26 -6 -2 -1 -21 10 -43 12 -22 19 -50 17 -62
-3 -16 1 -23 12 -23 13 0 13 -2 2 -9 -11 -7 -11 -13 0 -32 7 -13 14 -42 16
-64 2 -22 10 -45 18 -51 8 -6 12 -14 8 -18 -13 -13 -10 -44 4 -39 7 3 13 1 13
-5 0 -6 -6 -13 -12 -15 -7 -3 -3 -6 10 -6 25 -1 25 -1 12 -35 -7 -21 -6 -26 5
-26 14 0 20 -17 16 -47 -1 -7 5 -25 13 -40 7 -16 16 -44 19 -63 3 -19 12 -60
20 -90 12 -45 48 -231 61 -315 2 -11 6 -27 9 -35 8 -19 36 -171 41 -223 3 -21
9 -60 15 -85 6 -26 13 -66 15 -89 2 -23 7 -46 10 -52 3 -5 8 -22 10 -38 2 -15
13 -91 25 -168 21 -148 22 -176 2 -183 -7 -2 27 -30 76 -62 48 -32 104 -72
123 -89 l35 -32 -35 24 c-53 37 -84 52 -74 36 11 -18 17 -129 7 -129 -4 0 -8
-10 -9 -22 -1 -13 -4 -41 -8 -63 -4 -22 -9 -48 -10 -57 -1 -10 -5 -21 -9 -24
-4 -4 -7 -20 -7 -36 0 -15 -5 -28 -11 -28 -6 0 -8 -8 -4 -19 3 -11 1 -22 -5
-26 -6 -4 -9 -13 -6 -21 3 -7 1 -16 -4 -19 -15 -9 -12 -85 5 -140 8 -27 13
-50 11 -52 -2 -2 -52 45 -112 105 -60 60 -144 136 -187 170 -274 217 -535 269
-739 147 -32 -19 -58 -32 -58 -30 0 2 26 22 58 44 60 41 172 151 172 170 0 6
4 11 8 11 4 0 23 25 41 55 18 30 37 55 42 55 5 0 12 15 17 33 6 25 19 37 58
56 27 14 74 30 104 36 l55 12 -37 7 c-21 4 -38 12 -38 18 0 5 7 7 16 4 23 -9
38 4 20 17 -9 8 -24 66 -40 162 -14 83 -40 227 -57 320 -28 158 -30 181 -25
330 3 88 8 171 10 185 10 53 15 98 21 185 3 50 8 114 10 144 3 30 0 84 -6 120
-6 36 -13 73 -14 81 -9 57 -66 160 -105 191 -49 39 -135 60 -275 66 -104 5
-131 2 -205 -17 -47 -13 -89 -26 -95 -30 -5 -5 -29 -13 -52 -19 -23 -6 -48
-17 -55 -24 -57 -52 -200 -80 -259 -50 -16 8 -36 12 -44 9 -8 -3 -15 -1 -15 5
0 6 -7 9 -15 6 -8 -4 -17 -2 -20 3 -9 15 -27 12 -19 -2 4 -7 -2 -4 -14 6 -12
11 -22 16 -22 13 0 -3 -13 -2 -30 3 -19 5 -30 5 -30 -1 0 -6 -7 -6 -19 1 -28
14 -41 13 -41 -5 0 -12 -4 -13 -19 -6 -14 8 -20 7 -24 -3 -3 -9 -15 -12 -31
-9 -19 4 -26 1 -26 -11 0 -19 -16 -21 -23 -3 -3 7 -6 5 -6 -5 -1 -10 -4 -17
-8 -17 -20 3 -34 -2 -28 -11 3 -5 -2 -11 -12 -12 -10 0 -24 -2 -31 -2 -7 -1
-16 -7 -20 -13 -4 -7 -19 -12 -32 -11 -34 1 -70 -12 -70 -26 0 -6 -5 -4 -10 4
-5 8 -10 10 -10 4 0 -15 -48 -24 -54 -10 -3 7 -5 7 -5 -1 -1 -9 -8 -10 -26 -3
-14 5 -25 6 -25 1 0 -12 -43 -1 -52 13 -5 8 -8 7 -8 -2 0 -9 -6 -9 -23 3 -13
8 -27 12 -31 8 -4 -4 -4 1 0 12 4 11 4 17 -1 13 -17 -16 -44 14 -54 59 -5 27
-19 68 -30 93 -11 24 -17 48 -15 52 3 4 0 8 -6 8 -6 0 -8 4 -5 10 3 5 -6 34
-20 65 -14 31 -25 66 -25 80 0 13 -4 27 -10 30 -5 3 -10 18 -10 33 0 15 -9 38
-19 51 l-19 24 -7 -54 c-22 -167 -58 -378 -81 -469 -14 -58 -27 -112 -29 -121
-2 -9 -13 -37 -24 -62 -24 -53 -26 -61 -8 -51 6 4 1 -4 -12 -19 -13 -14 -24
-39 -25 -54 0 -16 -11 -40 -24 -53 -12 -13 -20 -30 -18 -37 7 -17 -11 -17 -18
0 -3 6 -2 -1 1 -17 4 -20 3 -27 -6 -22 -6 4 -11 1 -11 -8 0 -9 -7 -16 -15 -16
-8 0 -16 -4 -16 -10 -2 -14 -5 -22 -14 -43 -6 -15 -10 -16 -16 -5 -6 9 -9 6
-9 -10 0 -16 -5 -22 -17 -20 -13 2 -17 -3 -15 -16 2 -12 -1 -17 -10 -14 -17 7
-36 -13 -30 -32 3 -13 2 -13 -7 0 -10 13 -13 13 -25 -3 -14 -18 -46 -14 -46 5
0 6 7 7 16 4 15 -6 15 -4 2 17 -12 16 -14 35 -8 70 4 26 4 47 0 47 -9 0 -5
105 5 145 4 17 12 36 18 43 6 8 6 12 -1 12 -6 0 -5 11 4 28 7 16 14 44 14 63
0 19 1 41 1 49 1 15 -1 31 -20 110 -16 70 -34 315 -26 347 6 23 14 4 45 -118
39 -151 75 -240 99 -247 10 -3 7 5 -7 23 -28 35 -65 153 -91 286 -36 191 -36
204 -2 299 17 47 37 115 45 152 16 71 91 230 218 466 l39 72 -27 0 c-38 0
-220 -63 -306 -106 -115 -57 -226 -136 -309 -218 -42 -41 -89 -78 -103 -82
-17 -4 -32 -19 -43 -43 -9 -20 -21 -39 -26 -42 -5 -3 -8 -9 -7 -13 2 -12 -45
-63 -56 -59 -6 2 -21 -6 -34 -17 -13 -11 -30 -18 -37 -16 -7 3 -13 1 -13 -5 0
-6 -4 -8 -8 -5 -4 2 -21 -2 -37 -9 -17 -8 -41 -19 -55 -25 -52 -23 -120 -66
-158 -102 -22 -20 -43 -34 -46 -31 -3 4 -6 0 -6 -8 0 -8 -13 -23 -30 -34 -16
-11 -35 -30 -41 -42 -7 -13 -16 -23 -21 -23 -4 0 -8 -8 -8 -17 0 -9 -3 -13 -7
-10 -11 11 -32 -14 -26 -30 4 -11 2 -14 -5 -9 -7 4 -12 2 -12 -4 0 -6 -4 -9
-9 -6 -5 3 -12 -1 -15 -10 -11 -29 2 -27 34 4 17 17 45 41 63 54 18 12 34 25
37 28 3 3 31 6 63 7 74 3 85 -7 104 -100 14 -68 13 -202 -2 -279 -3 -16 -7
-39 -9 -52 -2 -13 -7 -32 -10 -43 -3 -10 -8 -40 -12 -68 -3 -27 -6 -52 -7 -55
-2 -16 17 -80 23 -80 5 0 6 9 3 20 -4 14 0 20 11 20 10 0 15 3 13 8 -2 4 4 21
14 37 39 64 55 101 51 118 -2 10 2 17 12 17 9 0 13 7 11 20 -2 13 2 20 11 20
10 0 13 7 8 25 -4 16 -2 25 6 25 7 0 10 7 6 15 -3 8 -1 15 5 15 6 0 7 9 3 22
-6 20 -5 21 8 10 13 -10 18 -7 31 20 8 18 18 43 21 55 5 14 12 20 21 16 8 -3
12 -9 9 -14 -3 -5 0 -9 5 -9 6 0 11 9 11 19 0 12 7 20 18 20 42 1 53 5 48 17
-3 8 0 11 8 8 8 -3 17 0 21 5 3 6 10 9 15 6 5 -3 11 -1 15 5 3 5 15 10 26 10
10 0 19 5 19 10 0 6 3 9 8 8 13 -3 66 14 81 26 8 6 15 9 17 6 1 -3 14 5 28 18
15 12 35 22 45 22 11 0 26 7 34 15 8 8 21 16 28 17 18 4 45 30 52 51 4 11 12
15 19 11 7 -5 9 -2 5 9 -5 14 50 113 59 104 6 -5 -45 -155 -66 -197 -58 -113
-140 -269 -154 -295 -9 -16 -16 -35 -16 -41 0 -7 -7 -15 -16 -18 -8 -3 -12
-10 -9 -16 3 -5 2 -10 -4 -10 -5 0 -13 -10 -17 -22 -4 -13 -9 -25 -13 -28 -3
-3 -22 -36 -41 -75 -19 -38 -39 -73 -45 -77 -7 -5 -7 -8 0 -8 6 0 2 -5 -8 -11
-9 -6 -15 -14 -12 -20 4 -5 -3 -22 -13 -37 -11 -15 -25 -46 -31 -70 -7 -23
-16 -42 -20 -42 -5 0 -12 -16 -16 -36 -3 -20 -11 -48 -17 -63 -6 -14 -12 -30
-12 -36 -3 -23 -31 -85 -39 -85 -4 0 -6 -8 -3 -18 4 -10 -1 -39 -10 -63 -9
-24 -18 -62 -21 -84 -2 -22 -9 -54 -14 -71 -5 -17 -11 -44 -13 -60 -3 -16 -9
-40 -14 -55 -6 -14 -8 -37 -5 -52 3 -15 1 -27 -5 -27 -5 0 -9 -22 -9 -49 0
-27 -4 -54 -8 -60 -3 -7 -2 -18 5 -26 8 -10 8 -18 -1 -33 -10 -16 -10 -23 0
-36 8 -9 9 -16 3 -16 -5 0 -8 -10 -4 -22 3 -12 1 -19 -5 -15 -5 3 -9 -3 -8
-14 1 -11 8 -25 16 -30 10 -6 11 -9 1 -9 -9 0 -11 -10 -6 -36 5 -26 4 -35 -5
-30 -7 5 -9 1 -4 -11 4 -10 6 -33 5 -53 -2 -36 -3 -143 -1 -170 2 -38 -5 -90
-12 -90 -4 0 -5 -18 -2 -40 4 -25 2 -40 -5 -40 -6 0 -10 -8 -9 -18 1 -19 -49
-128 -71 -155 -9 -9 -13 -20 -9 -23 14 -14 -30 -66 -188 -224 -25 -25 -45 -48
-45 -52 0 -4 -21 -21 -47 -39 -25 -18 -43 -27 -39 -21 5 8 -2 10 -21 6 -21 -4
-36 1 -58 20 -17 14 -33 26 -37 26 -17 0 -50 48 -60 88 -6 23 -12 41 -14 40
-2 -3 -104 -744 -104 -760 0 -3 19 -1 43 4 66 15 436 25 597 16 80 -4 188 -15
240 -24 144 -25 189 -17 480 79 368 123 605 173 1386 297 418 66 504 85 586
126 136 69 268 171 268 207 0 24 88 113 141 142 47 26 64 30 134 30 74 0 86
-3 165 -43 217 -109 419 -336 460 -517 19 -83 5 -166 -46 -262 -121 -232 -427
-521 -641 -606 -23 -9 -126 -26 -230 -37 -103 -11 -226 -25 -273 -30 -47 -6
-232 -10 -411 -10 -540 0 -954 -35 -1264 -106 -92 -21 -151 -27 -355 -35 -289
-11 -414 -23 -472 -46 -110 -43 -430 -235 -416 -249 3 -2 148 17 324 42 228
32 336 43 379 39 161 -15 554 -35 800 -41 235 -6 275 -5 270 7 -30 83 -93 315
-88 320 5 4 136 12 293 18 157 6 400 16 540 22 296 12 309 12 914 -36 252 -19
461 -34 463 -31 3 3 -1 86 -9 186 -7 100 -12 183 -9 186 2 2 25 4 50 4 104 0
217 50 309 135 134 124 221 308 319 675 30 114 36 152 37 245 1 105 -1 113
-31 175 -18 36 -50 84 -71 107 l-39 42 -17 218 c-39 504 -150 1477 -191 1675
-56 266 -184 496 -351 628 -116 93 -187 129 -554 279 -116 48 -126 55 -142 89
-23 48 -247 323 -284 347 -16 10 -53 26 -84 36 -51 16 -55 19 -71 65 -10 27
-18 44 -18 39z m-176 -525 c3 -5 1 -10 -4 -10 -6 0 -11 5 -11 10 0 6 2 10 4
10 3 0 8 -4 11 -10z m-1733 -213 c7 -7 24 -21 38 -30 l24 -17 -31 0 c-18 0
-53 -7 -79 -16 -25 -9 -55 -17 -66 -19 -11 -3 -26 -12 -33 -21 -7 -11 -17 -14
-25 -9 -8 5 -11 4 -7 -2 4 -6 -10 -22 -31 -37 -21 -14 -55 -44 -77 -66 -21
-22 -47 -40 -57 -40 -20 0 -25 20 -5 20 6 0 39 23 72 50 33 28 63 50 68 50 4
0 5 5 1 12 -4 7 -3 8 4 4 7 -4 12 -1 12 6 0 7 14 22 30 33 16 11 30 25 30 31
0 11 85 62 107 63 6 1 18 -5 25 -12z m171 -125 c-6 -25 -18 -29 -27 -7 -3 9 0
15 9 15 8 0 15 5 15 12 0 6 2 9 5 7 2 -3 2 -15 -2 -27z m1514 12 c-3 -3 -12
-4 -19 -1 -8 3 -5 6 6 6 11 1 17 -2 13 -5z"/>
<path d="M11143 7528 c-13 -6 -23 -15 -23 -20 0 -5 11 -1 25 8 37 24 35 30 -2
12z"/>
<path d="M11020 7470 c0 -5 5 -10 11 -10 5 0 7 5 4 10 -3 6 -8 10 -11 10 -2 0
-4 -4 -4 -10z"/>
<path d="M4748 7360 c-229 -3 -420 -8 -424 -13 -4 -4 43 -6 104 -4 87 2 112 0
112 -10 0 -7 -4 -13 -9 -13 -5 0 -17 -3 -27 -7 -11 -4 -15 -3 -11 4 4 6 -10 2
-31 -8 -20 -11 -42 -17 -49 -14 -7 2 -13 0 -13 -6 0 -6 -9 -8 -20 -4 -11 4
-20 2 -20 -4 0 -6 -9 -11 -19 -11 -11 0 -22 -4 -25 -9 -4 -5 -17 -8 -31 -6
-14 1 -25 -1 -25 -5 0 -4 -6 -7 -12 -8 -69 -8 -104 -15 -113 -21 -5 -5 -18 -7
-27 -6 -10 2 -20 0 -22 -4 -3 -4 -23 -6 -45 -5 -23 1 -41 -3 -41 -8 0 -6 -6
-5 -15 2 -8 7 -15 8 -15 3 0 -9 -33 -13 -110 -14 -14 0 -32 -6 -40 -13 -8 -7
-35 -12 -60 -11 -25 0 -47 -3 -50 -7 -6 -7 -68 -16 -147 -20 -24 -1 -43 -5
-43 -8 0 -6 -22 -9 -107 -11 -29 -1 -53 -6 -53 -12 0 -5 -7 -7 -15 -3 -9 3
-31 -10 -56 -35 -38 -38 -67 -48 -39 -14 7 8 9 15 6 15 -12 0 -38 -29 -33 -37
3 -5 -7 -8 -22 -9 -16 -1 -38 -11 -50 -23 -15 -15 -29 -20 -44 -16 -13 4 -17
3 -10 -2 8 -6 9 -13 2 -23 -8 -13 -10 -13 -19 0 -8 13 -10 12 -10 -3 0 -12 -6
-17 -17 -15 -10 2 -23 -5 -30 -17 -11 -18 -12 -18 -13 -2 0 10 -5 15 -10 12
-7 -4 -6 -14 1 -28 12 -22 12 -22 -10 -3 -16 14 -21 16 -21 5 0 -11 -2 -11
-10 1 -8 12 -10 10 -10 -9 0 -17 -3 -21 -12 -13 -9 7 -17 5 -28 -6 -13 -14
-12 -15 5 -8 15 5 17 4 8 -5 -6 -6 -9 -19 -6 -28 3 -10 2 -12 -4 -5 -4 6 -19
17 -33 24 -23 12 -24 12 -11 -3 11 -15 11 -17 -1 -17 -8 0 -19 5 -25 11 -9 9
-11 7 -6 -9 4 -16 -1 -23 -20 -27 -14 -4 -31 -4 -38 1 -8 4 -9 3 -5 -4 4 -7 2
-12 -3 -12 -6 0 -11 -8 -11 -17 0 -13 -3 -14 -12 -5 -10 10 -16 5 -31 -20 -10
-18 -16 -25 -13 -15 7 23 2 22 -51 -14 -33 -23 -47 -28 -53 -19 -5 8 -10 4
-15 -12 -6 -19 -8 -20 -12 -5 -5 20 -23 23 -23 4 0 -17 -36 -47 -46 -39 -4 4
-4 -1 -1 -10 7 -21 -18 -26 -26 -5 -4 7 -8 3 -13 -11 -5 -17 -11 -21 -26 -16
-15 4 -18 3 -13 -7 6 -9 3 -11 -9 -6 -9 4 -15 3 -12 -1 2 -4 1 -14 -5 -22 -7
-12 -9 -11 -9 4 0 16 -3 15 -25 -8 -14 -16 -32 -26 -39 -23 -10 4 -13 -1 -10
-16 2 -12 2 -16 -2 -9 -8 16 -44 16 -44 -1 0 -7 -7 -22 -16 -33 -13 -16 -15
-16 -10 -1 8 25 0 21 -39 -18 -31 -32 -35 -34 -44 -18 -6 11 -11 13 -11 5 0
-7 -4 -10 -10 -7 -6 4 -7 -1 -3 -11 5 -14 2 -16 -15 -12 -15 4 -19 2 -15 -8 3
-8 -1 -14 -11 -14 -9 0 -16 -5 -16 -11 0 -7 -14 -10 -35 -7 -23 3 -32 1 -25
-6 11 -11 -46 -50 -61 -40 -12 7 -41 -15 -33 -27 3 -5 -1 -6 -9 -3 -9 3 -26
-6 -40 -22 -15 -16 -35 -26 -51 -26 -15 0 -25 -3 -22 -6 3 -2 -9 -12 -27 -21
-21 -11 -35 -13 -39 -6 -5 6 -8 6 -8 -2 0 -6 4 -15 10 -18 5 -3 10 -12 10 -18
0 -7 -4 -6 -10 3 -9 13 -12 12 -21 -4 -9 -15 -13 -16 -20 -5 -6 10 -9 5 -9
-16 l-1 -30 -14 25 c-12 21 -14 22 -15 6 0 -11 -3 -16 -7 -13 -8 9 -34 -13
-28 -23 3 -5 -6 -7 -20 -5 -14 1 -25 -1 -25 -5 0 -4 -12 -11 -27 -15 -40 -10
-58 -26 -41 -37 22 -14 -11 -28 -40 -17 -17 7 -29 6 -36 -1 -8 -8 -7 -9 5 -5
10 4 19 0 23 -11 4 -11 2 -15 -7 -11 -7 3 -19 -4 -25 -14 -7 -10 -8 -19 -3
-19 14 0 8 -34 -9 -48 -8 -8 -9 -11 -2 -7 14 7 14 8 3 -33 -6 -20 -6 -30 0
-27 12 8 12 -2 -1 -25 -6 -10 -6 -21 -1 -24 9 -6 7 -54 -3 -63 -3 -4 -2 -11 2
-17 5 -6 5 -22 1 -36 -6 -21 -7 -22 -9 -5 -1 11 -8 38 -15 60 -14 40 -14 40
-9 5 3 -19 120 -521 259 -1115 139 -594 285 -1217 324 -1385 82 -349 89 -375
132 -441 60 -94 -36 -80 1191 -179 601 -49 1109 -92 1128 -95 19 -3 486 -50
1037 -105 708 -71 1041 -100 1134 -100 129 0 342 27 1744 223 l160 22 0 27 c1
37 39 75 104 106 58 28 255 207 245 223 -3 5 8 14 24 21 24 11 143 128 130
128 -2 0 -42 -16 -88 -35 -47 -19 -91 -35 -99 -35 -20 0 -201 -100 -201 -110
0 -14 -76 -50 -113 -55 -18 -3 -55 -9 -84 -14 -54 -11 -87 -5 -143 24 -19 10
-48 19 -65 20 -31 2 -43 24 -61 110 l-6 30 -19 -24 c-11 -14 -23 -36 -25 -50
-10 -49 -54 -84 -126 -100 -33 -8 -63 -6 -128 8 -96 21 -126 45 -136 112 -4
21 -8 39 -10 39 -2 0 -19 -11 -39 -24 -20 -14 -57 -28 -83 -31 -26 -3 -57 -8
-69 -11 -17 -3 -23 0 -23 12 0 12 -6 15 -22 10 -13 -3 -26 -6 -30 -6 -5 0 -8
-4 -8 -10 0 -5 13 -10 28 -10 22 0 32 -7 45 -35 l17 -35 77 0 c101 0 127 -15
44 -25 -33 -4 -64 -11 -67 -16 -3 -5 -1 -9 5 -9 5 0 5 -12 -2 -31 -10 -26 -16
-30 -40 -25 -15 3 -64 -3 -110 -14 -45 -11 -107 -21 -137 -24 -30 -3 -97 -12
-149 -20 -52 -8 -97 -15 -100 -14 -22 2 -64 -5 -53 -9 18 -7 502 46 527 57 11
6 36 9 55 8 19 -1 87 2 151 6 101 7 117 7 122 -7 4 -10 0 -18 -11 -21 -52 -16
-971 -139 -1129 -152 l-83 -7 0 34 c0 19 -5 41 -10 49 -8 12 -10 11 -10 -7 0
-15 -15 -32 -45 -53 -25 -17 -45 -36 -46 -43 0 -7 -11 38 -24 98 -13 61 -100
463 -194 895 -93 432 -231 1071 -306 1420 -391 1821 -467 2165 -488 2217 -28
72 -107 157 -156 166 -18 4 -63 6 -100 5 -36 -1 -254 -5 -483 -8z m-1398 -280
c0 -5 -5 -10 -11 -10 -5 0 -7 5 -4 10 3 6 8 10 11 10 2 0 4 -4 4 -10z m-1385
-749 c3 -5 1 -12 -5 -16 -5 -3 -10 1 -10 9 0 18 6 21 15 7z m-422 -252 c4 -16
3 -18 -9 -8 -16 13 -19 29 -5 29 5 0 11 -9 14 -21z m7067 -3218 c0 -9 -75 -22
-119 -20 -17 1 -8 5 24 13 66 15 95 18 95 7z m-157 -28 c-7 -2 -19 -2 -25 0
-7 3 -2 5 12 5 14 0 19 -2 13 -5z m-722 -148 c18 -10 29 -22 27 -33 -2 -14 7
-18 52 -22 l55 -5 -70 -17 c-38 -9 -128 -24 -200 -33 -71 -9 -137 -18 -145
-20 -9 -3 -76 -14 -150 -25 -74 -10 -209 -31 -300 -45 -91 -14 -186 -24 -211
-23 -25 1 -50 -1 -56 -5 -5 -3 -39 0 -74 7 -45 9 -65 18 -67 29 -4 22 -11 21
-47 -4 -16 -11 -43 -27 -60 -36 -30 -16 -30 -16 8 28 75 86 100 109 111 100
16 -13 413 33 886 103 130 19 205 19 241 1z"/>
<path d="M4042 7343 c48 -2 129 -2 180 0 51 1 12 3 -87 3 -99 0 -141 -2 -93
-3z"/>
<path d="M8893 6975 c0 -8 4 -12 9 -9 5 3 6 10 3 15 -9 13 -12 11 -12 -6z"/>
<path d="M9030 6978 c0 -4 -6 -8 -14 -8 -7 0 -22 -11 -32 -25 -10 -14 -24 -25
-31 -25 -7 0 -13 -7 -13 -15 0 -9 -7 -18 -15 -22 -9 -3 -29 -25 -45 -48 -17
-24 -36 -49 -43 -57 -16 -16 -97 -137 -97 -145 0 -3 -11 -18 -25 -35 -14 -16
-25 -36 -25 -43 0 -7 -4 -15 -8 -17 -5 -1 -26 -32 -48 -68 -21 -36 -41 -67
-44 -70 -3 -3 -18 -31 -35 -62 -16 -32 -32 -58 -35 -58 -3 0 -16 -21 -30 -47
-13 -27 -39 -69 -57 -95 -18 -26 -33 -51 -33 -55 0 -5 -20 -37 -45 -73 -25
-36 -45 -71 -45 -78 0 -7 -7 -15 -15 -18 -8 -4 -15 -12 -15 -19 0 -8 -6 -20
-13 -27 -7 -7 -26 -35 -41 -63 -36 -63 -118 -175 -127 -175 -4 0 -12 -14 -18
-30 -9 -27 -7 -32 20 -52 19 -14 25 -24 17 -29 -7 -4 27 -32 85 -69 156 -100
118 -86 -60 21 -72 44 -133 76 -171 90 l-27 9 25 -21 c16 -14 19 -19 8 -15
-28 9 -64 -38 -134 -179 -36 -71 -69 -134 -75 -139 -20 -21 -9 -64 22 -86 16
-12 28 -24 26 -27 -3 -2 -43 7 -88 20 -160 48 -209 44 -209 -14 0 -45 71 -139
105 -139 2 0 23 31 46 70 50 80 41 78 159 24 96 -45 161 -86 230 -144 30 -26
66 -55 78 -66 45 -36 109 -129 127 -183 13 -40 16 -72 12 -120 -7 -79 -68
-263 -126 -379 -67 -133 -230 -365 -334 -475 -69 -72 -156 -121 -317 -178 -69
-25 -215 -102 -226 -120 -8 -13 25 -7 146 28 160 46 261 116 461 320 172 175
328 372 499 628 29 44 54 81 55 82 1 2 39 -13 84 -33 45 -19 92 -34 104 -32
20 3 57 46 102 120 16 25 27 85 49 253 65 513 140 871 314 1504 50 180 58 219
51 255 -18 93 -38 236 -44 316 -9 134 -13 146 -41 146 -13 0 -24 -4 -24 -8z"/>
<path d="M8865 6950 c3 -5 8 -10 11 -10 2 0 4 5 4 10 0 6 -5 10 -11 10 -5 0
-7 -4 -4 -10z"/>
<path d="M2345 6580 c3 -5 8 -10 11 -10 2 0 4 5 4 10 0 6 -5 10 -11 10 -5 0
-7 -4 -4 -10z"/>
<path d="M1830 6292 c0 -5 7 -9 15 -9 8 0 15 4 15 9 0 4 -7 8 -15 8 -8 0 -15
-4 -15 -8z"/>
<path d="M1615 6170 c-3 -5 -1 -10 4 -10 6 0 11 5 11 10 0 6 -2 10 -4 10 -3 0
-8 -4 -11 -10z"/>
<path d="M1475 6080 c3 -5 8 -10 11 -10 2 0 4 5 4 10 0 6 -5 10 -11 10 -5 0
-7 -4 -4 -10z"/>
<path d="M1331 5995 c1 -19 18 -51 18 -35 0 8 -4 22 -9 30 -5 8 -9 11 -9 5z"/>
<path d="M1351 5930 c0 -8 6 -37 13 -65 8 -27 15 -43 15 -35 0 8 -6 38 -13 65
-8 28 -15 43 -15 35z"/>
<path d="M6580 3709 c-30 -11 -77 -27 -105 -34 -45 -13 -51 -12 -63 3 -14 19
-17 36 38 -242 22 -112 43 -192 51 -197 8 -5 32 -12 54 -16 32 -5 35 -8 20
-14 -11 -4 -32 -8 -47 -8 -28 -1 -33 -8 -22 -34 4 -11 20 -13 72 -10 37 3 126
-2 197 -11 175 -21 216 -21 248 4 14 11 36 20 49 21 12 0 32 4 43 9 17 7 15 9
-11 9 -17 1 -52 4 -78 7 -37 5 -46 11 -46 26 0 18 5 19 107 12 101 -7 107 -6
94 10 -11 13 -30 17 -80 17 -56 -1 -192 12 -241 22 -8 2 24 16 73 32 66 22 86
33 83 45 -3 8 -10 34 -16 57 -12 47 -14 48 -119 63 -137 19 -169 50 -180 174
-6 70 -6 71 -36 73 -16 1 -55 -7 -85 -18z"/>
<path d="M7365 2960 c-30 -8 -30 -8 8 -9 23 -1 36 3 32 9 -3 6 -7 9 -8 9 -1
-1 -15 -5 -32 -9z"/>
<path d="M7293 2943 c9 -2 23 -2 30 0 6 3 -1 5 -18 5 -16 0 -22 -2 -12 -5z"/>
<path d="M12920 2911 c0 -25 -20 -40 -83 -62 -38 -14 -42 -17 -17 -13 19 4 52
13 73 21 31 13 37 20 37 44 0 16 -2 29 -5 29 -3 0 -5 -8 -5 -19z"/>
<path d="M12748 2823 c6 -2 18 -2 25 0 6 3 1 5 -13 5 -14 0 -19 -2 -12 -5z"/>
<path d="M12693 2813 c9 -2 23 -2 30 0 6 3 -1 5 -18 5 -16 0 -22 -2 -12 -5z"/>
<path d="M12633 2803 c9 -2 23 -2 30 0 6 3 -1 5 -18 5 -16 0 -22 -2 -12 -5z"/>
<path d="M12568 2793 c6 -2 18 -2 25 0 6 3 1 5 -13 5 -14 0 -19 -2 -12 -5z"/>
<path d="M6796 2685 c-3 -8 -1 -15 4 -15 6 0 10 7 10 15 0 8 -2 15 -4 15 -2 0
-6 -7 -10 -15z"/>
<path d="M6855 2690 c-34 -6 -35 -7 -10 -8 17 0 50 3 75 7 40 8 41 8 10 8 -19
0 -53 -3 -75 -7z"/>
<path d="M8550 2536 c37 -42 73 -56 137 -55 l58 1 -50 15 c-27 8 -68 20 -91
27 -23 6 -50 18 -60 26 -10 8 -8 2 6 -14z"/>
</g>
</svg>
